<svg width="18" height="18" viewBox="0 0 18 18" fill="none" xmlns="http://www.w3.org/2000/svg">
<path d="M8.99903 0.36976C8.2495 0.36976 7.64189 0.97737 7.64189 1.7269L7.64189 7.64285L1.72593 7.64285C0.976404 7.64285 0.368791 8.25047 0.368791 9C0.368792 9.74953 0.976405 10.3571 1.72593 10.3571L7.64189 10.3571L7.64189 16.2731C7.64189 17.0226 8.2495 17.6302 8.99903 17.6302C9.74856 17.6302 10.3562 17.0226 10.3562 16.2731L10.3562 10.3571L16.2721 10.3571C17.0216 10.3571 17.6293 9.74953 17.6293 9.00001C17.6293 8.25048 17.0217 7.64286 16.2721 7.64286L10.3562 7.64285L10.3562 1.7269C10.3562 0.977373 9.74856 0.369757 8.99903 0.36976Z" fill="white"/>
</svg>
