<svg width="15" height="15" viewBox="0 0 15 15" fill="none" xmlns="http://www.w3.org/2000/svg">
<g clip-path="url(#clip0_322_2204)">
<path fill-rule="evenodd" clip-rule="evenodd" d="M11.7188 1.875H3.28125C2.5046 1.875 1.875 2.5046 1.875 3.28125V11.7188C1.875 12.4954 2.5046 13.125 3.28125 13.125H11.7188C12.4954 13.125 13.125 12.4954 13.125 11.7188V3.28125C13.125 2.5046 12.4954 1.875 11.7188 1.875ZM3.28125 0.46875C1.72795 0.46875 0.46875 1.72795 0.46875 3.28125V11.7188C0.46875 13.2721 1.72795 14.5312 3.28125 14.5312H11.7188C13.2721 14.5312 14.5312 13.2721 14.5312 11.7188V3.28125C14.5312 1.72795 13.2721 0.46875 11.7188 0.46875H3.28125Z" fill="#222222"/>
</g>
<g clip-path="url(#clip1_322_2204)">
<path d="M7.5 4.21875C7.19797 4.21875 6.95312 4.46359 6.95312 4.76562V6.95312H4.76562C4.46359 6.95312 4.21875 7.19797 4.21875 7.5C4.21875 7.80203 4.46359 8.04688 4.76562 8.04688H6.95312V10.2344C6.95312 10.5364 7.19797 10.7812 7.5 10.7812C7.80203 10.7812 8.04688 10.5364 8.04688 10.2344V8.04688H10.2344C10.5364 8.04688 10.7812 7.80203 10.7812 7.5C10.7812 7.19797 10.5364 6.95312 10.2344 6.95312H8.04688V4.76562C8.04688 4.46359 7.80203 4.21875 7.5 4.21875Z" fill="#222222"/>
</g>
<defs>
<clipPath id="clip0_322_2204">
<rect width="15" height="15" fill="white"/>
</clipPath>
<clipPath id="clip1_322_2204">
<rect width="7" height="7" fill="white" transform="translate(4 4)"/>
</clipPath>
</defs>
</svg>
