<svg width="30" height="30" viewBox="0 0 30 30" fill="none" xmlns="http://www.w3.org/2000/svg">
<path fill-rule="evenodd" clip-rule="evenodd" d="M8.02562 4.16188C8.57479 4.71106 8.57479 5.60144 8.02562 6.15062L4.80124 9.375H20.1562C21.5339 9.375 23.6982 9.62582 25.5673 10.7473C27.5371 11.9292 29.0625 14.0186 29.0625 17.3438C29.0625 20.6689 27.5371 22.7583 25.5673 23.9402C23.6982 25.0617 21.5339 25.3125 20.1562 25.3125H15.4688C14.6921 25.3125 14.0625 24.6829 14.0625 23.9062C14.0625 23.1296 14.6921 22.5 15.4688 22.5H20.1562C21.2786 22.5 22.8643 22.2821 24.1202 21.5285C25.2754 20.8354 26.25 19.6436 26.25 17.3438C26.25 15.0439 25.2754 13.8521 24.1202 13.159C22.8643 12.4054 21.2786 12.1875 20.1562 12.1875H4.80124L8.02562 15.4119C8.57479 15.9611 8.57479 16.8514 8.02562 17.4006C7.47644 17.9498 6.58606 17.9498 6.03688 17.4006L0.411881 11.7756C-0.137294 11.2264 -0.137294 10.3361 0.411881 9.78688L6.03688 4.16188C6.58606 3.61271 7.47644 3.61271 8.02562 4.16188Z" fill="#909090"/>
</svg>
