<svg viewBox="0 0 38 38" fill="none" xmlns="http://www.w3.org/2000/svg">
<path d="M13.0625 1.1875H8.3125C4.37747 1.1875 1.1875 4.37747 1.1875 8.3125V13.0625H4.75V8.3125C4.75 6.34499 6.34499 4.75 8.3125 4.75H13.0625V1.1875Z" fill="#222222"/>
<path d="M4.75 24.9375H1.1875V29.6875C1.1875 33.6225 4.37747 36.8125 8.3125 36.8125H13.0625V33.25H8.3125C6.34499 33.25 4.75 31.655 4.75 29.6875V24.9375Z" fill="#222222"/>
<path d="M24.9375 33.25V36.8125H29.6875C33.6225 36.8125 36.8125 33.6225 36.8125 29.6875V24.9375H33.25V29.6875C33.25 31.655 31.655 33.25 29.6875 33.25H24.9375Z" fill="#222222"/>
<path d="M33.25 8.3125V13.0625H36.8125V8.3125C36.8125 4.37747 33.6225 1.1875 29.6875 1.1875H24.9375V4.75H29.6875C31.655 4.75 33.25 6.34499 33.25 8.3125Z" fill="#222222"/>
<path d="M9.5 9.5H8.3125V28.5H9.5V9.5Z" fill="#222222"/>
<path d="M21.375 9.5H19V28.5H21.375V9.5Z" fill="#222222"/>
<path d="M23.75 9.5H24.9375V28.5H23.75V9.5Z" fill="#222222"/>
<path d="M29.6875 9.5H27.3125V28.5H29.6875V9.5Z" fill="#222222"/>
<path d="M11.875 9.5H16.625V28.5H11.875V9.5Z" fill="#222222"/>
</svg>
