<svg width="20" height="24" viewBox="0 0 20 24" fill="none" xmlns="http://www.w3.org/2000/svg">
<path d="M7.27121 21.3348C4.95413 21.3348 2.63629 21.3311 0.319204 21.34C0.0802117 21.34 -0.0123503 21.2984 0.0013064 21.043C0.0255849 20.5633 0.00585863 20.0777 0.00889345 19.5995C0.0134457 18.6588 0.646205 17.9259 1.59534 17.7989C1.80626 17.7707 1.82827 17.6942 1.82751 17.5227C1.82296 15.264 1.79413 13.0045 1.83206 10.7465C1.8882 7.43414 3.44734 5.00314 6.44726 3.46985C7.20596 3.08151 8.0284 2.86247 8.87511 2.74663C9.06858 2.72065 9.09666 2.64491 9.09438 2.48304C9.08603 1.97367 9.08907 1.46431 9.09438 0.955684C9.09514 0.395084 9.4836 -0.005875 10.0147 6.51344e-05C10.5283 0.00600527 10.9077 0.403994 10.9115 0.947516C10.9115 1.45614 10.9259 1.96625 10.9054 2.47413C10.8971 2.68798 10.9927 2.73995 11.1717 2.77114C13.6641 3.18546 15.576 4.46259 16.9265 6.53792C17.7418 7.78531 18.1747 9.2353 18.1738 10.7161C18.1882 12.9748 18.1799 15.2335 18.1738 17.4923C18.1738 17.6816 18.1973 17.7692 18.431 17.8071C19.4044 17.9645 19.9894 18.6647 19.9932 19.6255C19.9932 20.1074 19.9803 20.5908 19.9992 21.0697C20.0091 21.2999 19.9234 21.3407 19.7109 21.34C17.3842 21.3341 15.0575 21.3328 12.7309 21.3363L7.27121 21.3348Z" fill="#FED44F"/>
<path d="M7.27246 21.3351H12.7291C12.6532 22.9167 11.4453 24.0476 9.88772 23.9986C8.45225 23.954 7.34226 22.8239 7.27246 21.3351Z" fill="#FEB301"/>
</svg>
