<svg width="1000" height="26" viewBox="0 0 1000 26" fill="none" xmlns="http://www.w3.org/2000/svg">
<path d="M0 26V12.882L0.510417 12.91H0.583333C4.8125 12.91 8.58333 7.88396 9.97917 0.407959H18.1146C19.5312 7.88396 23.3229 12.91 27.5625 12.91H27.625C31.8542 12.91 35.625 7.88396 37.0312 0.407959H45.1562C46.5625 7.88396 50.3646 12.91 54.5938 12.91H54.6563C58.8854 12.91 62.6563 7.88396 64.0625 0.407959H72.1875C73.6042 7.88396 77.3958 12.91 81.625 12.91H81.6979C85.9271 12.91 89.6875 7.88396 91.1042 0.407959H99.2188C100.625 7.88396 104.427 12.91 108.656 12.91H108.719C109.818 12.8806 110.901 12.5529 111.903 11.9466C112.906 11.3403 113.807 10.468 114.552 9.38196C116.323 6.86196 117.552 3.78196 118.125 0.421959H126.25C126.417 1.26196 126.625 2.11596 126.854 2.94196C126.948 3.27796 127.063 3.57196 127.167 3.86596L127.271 4.20196L127.375 4.50996L127.635 5.25196C127.854 5.81196 128.104 6.37196 128.375 6.90396L128.458 7.07196L128.552 7.26796C130.01 10.306 132.385 12.322 135.052 12.784V12.812L135.302 12.854C135.436 12.8867 135.572 12.9054 135.708 12.91H135.771C140 12.91 143.76 7.89796 145.177 0.421959H153.302C154.719 7.89796 158.51 12.91 162.74 12.91H162.802C167.031 12.91 170.802 7.89796 172.208 0.421959H180.333C181.74 7.89796 185.521 12.91 189.76 12.91H189.823C194.062 12.91 197.844 7.89796 199.229 0.421959H207.354C208.771 7.89796 212.562 12.91 216.802 12.91H216.865C221.083 12.91 224.854 7.89796 226.271 0.421959H234.396C235.802 7.89796 239.604 12.91 243.833 12.91H243.917C248.146 12.91 251.906 7.89796 253.313 0.421959H261.438C262.854 7.89796 266.646 12.91 270.885 12.91H270.927C275.146 12.91 278.927 7.89796 280.333 0.421959H288.458C289.875 7.89796 293.667 12.91 297.896 12.91H297.958C299.062 12.8817 300.149 12.5533 301.155 11.9445C302.161 11.3358 303.065 10.4593 303.812 9.36796C305.562 6.84796 306.792 3.76796 307.375 0.421959H315.5C315.667 1.28996 315.865 2.12996 316.104 2.95596L316.417 3.93596L316.521 4.21596L316.625 4.55196V4.57996C316.909 5.3854 317.236 6.1621 317.604 6.90396L317.698 7.07196L317.781 7.26796C318.497 8.77045 319.449 10.0441 320.57 10.9994C321.691 11.9548 322.954 12.5687 324.271 12.798V12.826L324.521 12.868C324.658 12.9014 324.798 12.9201 324.938 12.924H325C329.219 12.924 332.99 7.91196 334.406 0.435959H342.531C343.938 7.91196 347.74 12.924 351.969 12.924H352.031C356.26 12.924 360.031 7.91196 361.438 0.435959H369.563C370.979 7.91196 374.771 12.924 379 12.924H379.062C383.292 12.924 387.062 7.91196 388.469 0.435959H396.594C398.01 7.91196 401.802 12.924 406.031 12.924H406.094C410.323 12.924 414.094 7.91196 415.5 0.435959H423.625C425.042 7.91196 428.833 12.924 433.063 12.924H433.135C437.354 12.924 441.125 7.91196 442.542 0.435959H450.667C452.073 7.91196 455.875 12.924 460.104 12.924H460.167C464.385 12.924 468.156 7.91196 469.573 0.435959H477.698C479.115 7.91196 482.906 12.924 487.135 12.924H487.198C488.297 12.8938 489.38 12.5657 490.382 11.9595C491.385 11.3533 492.286 10.4814 493.031 9.39596L493.052 9.38196C494.813 6.87596 496.042 3.78196 496.625 0.449959H504.75C504.917 1.30396 505.115 2.15796 505.354 2.96996C505.448 3.30596 505.562 3.61396 505.667 3.92196L505.771 4.22996L505.896 4.60796C505.963 4.82613 506.036 5.04094 506.115 5.25196C506.365 5.86796 506.635 6.42796 506.865 6.90396L506.958 7.08596L507.042 7.26796C507.756 8.76879 508.707 10.0414 509.826 10.9967C510.945 11.9519 512.206 12.5667 513.521 12.798V12.826L513.771 12.868C513.908 12.9014 514.048 12.9201 514.188 12.924H514.25C518.479 12.924 522.24 7.89796 523.656 0.421959H531.781C533.188 7.89796 536.99 12.924 541.219 12.924H541.281C545.51 12.924 549.292 7.89796 550.688 0.421959H558.812C560.229 7.89796 564.021 12.924 568.25 12.924H568.312C572.542 12.924 576.313 7.89796 577.729 0.421959H585.854C587.26 7.89796 591.062 12.924 595.292 12.924H595.354C599.583 12.924 603.354 7.89796 604.75 0.421959H612.885C614.292 7.89796 618.094 12.924 622.323 12.924H622.385C626.615 12.924 630.385 7.89796 631.792 0.421959H639.917C641.333 7.89796 645.125 12.924 649.354 12.924H649.427C653.646 12.924 657.417 7.89796 658.823 0.421959H666.969C668.375 7.89796 672.177 12.924 676.406 12.924H676.469C677.568 12.8938 678.651 12.5657 679.653 11.9595C680.655 11.3533 681.556 10.4814 682.302 9.39596V9.36796C684.06 6.86972 685.29 3.7863 685.865 0.435959H693.99C694.156 1.30396 694.365 2.14396 694.594 2.98396L694.875 3.82396L695.01 4.21596L695.115 4.53796V4.56596C695.373 5.39638 695.705 6.18149 696.104 6.90396L696.167 7.05796L696.271 7.28196C696.988 8.78612 697.941 10.0608 699.064 11.0162C700.187 11.9717 701.453 12.5846 702.771 12.812V12.84L703.01 12.882C703.148 12.9152 703.287 12.9339 703.427 12.938H703.49C707.719 12.938 711.479 7.92596 712.896 0.449959H721.021C722.438 7.92596 726.229 12.938 730.458 12.938H730.521C734.75 12.938 738.521 7.92596 739.927 0.449959H748.063C749.469 7.92596 753.26 12.938 757.5 12.938H757.552C761.781 12.938 765.562 7.92596 766.958 0.449959H775.094C776.51 7.92596 780.302 12.938 784.531 12.938H784.594C788.823 12.938 792.604 7.92596 794 0.449959H802.125C803.542 7.92596 807.333 12.938 811.563 12.938H811.635C815.854 12.938 819.625 7.92596 821.042 0.449959H829.167C830.573 7.92596 834.375 12.938 838.604 12.938H838.667C842.896 12.938 846.656 7.92596 848.073 0.449959H856.198C857.615 7.92596 861.406 12.938 865.635 12.938H865.698C866.798 12.9057 867.882 12.5767 868.886 11.9707C869.89 11.3647 870.793 10.4939 871.542 9.40996V9.38196C873.299 6.88135 874.532 3.79937 875.115 0.449959H883.24C883.406 1.30396 883.604 2.15796 883.854 2.96996C883.938 3.29196 884.031 3.57196 884.125 3.86596L884.25 4.22996L884.365 4.57996C884.623 5.41038 884.955 6.19549 885.354 6.91796L885.417 7.07196L885.521 7.29596C886.236 8.79679 887.186 10.0694 888.305 11.0247C889.424 11.9799 890.685 12.5947 892 12.826V12.854L892.26 12.896C892.395 12.9289 892.53 12.9476 892.667 12.952H892.729C896.958 12.952 900.74 7.93996 902.135 0.463959H910.26C911.677 7.93996 915.469 12.952 919.698 12.952H919.771C923.99 12.952 927.76 7.93996 929.167 0.463959H937.292C938.708 7.93996 942.5 12.952 946.729 12.952H946.802C951.021 12.952 954.792 7.93996 956.208 0.463959H964.333C965.75 7.93996 969.542 12.952 973.771 12.952H973.844C978.062 12.952 981.833 7.93996 983.25 0.463959H991.375C992.781 7.93996 996.812 12.952 1001.06 12.952L1001.08 26H0Z" fill="#F43B00"/>
</svg>
