<svg width="19" height="19" viewBox="0 0 19 19" fill="none" xmlns="http://www.w3.org/2000/svg">
<path fill-rule="evenodd" clip-rule="evenodd" d="M9.81842 14.1361C12.015 14.1361 13.7957 12.3555 13.7957 10.1589C13.7957 7.96229 12.015 6.18161 9.81842 6.18161C7.62184 6.18161 5.84116 7.96229 5.84116 10.1589C5.84116 12.3555 7.62184 14.1361 9.81842 14.1361ZM12.0911 10.1589C12.0911 11.4141 11.0736 12.4316 9.81842 12.4316C8.56323 12.4316 7.5457 11.4141 7.5457 10.1589C7.5457 8.90368 8.56323 7.88615 9.81842 7.88615C11.0736 7.88615 12.0911 8.90368 12.0911 10.1589Z" fill="white"/>
<path fill-rule="evenodd" clip-rule="evenodd" d="M5.89133 3.19019L5.78127 3.52038C5.70393 3.7524 5.48681 3.90889 5.24225 3.90889H3.56844C1.99945 3.90889 0.727539 5.1808 0.727539 6.74979V14.7043C0.727539 16.2733 1.99945 17.5452 3.56844 17.5452H16.0684C17.6374 17.5452 18.9093 16.2733 18.9093 14.7043V6.74979C18.9093 5.1808 17.6374 3.90889 16.0684 3.90889H14.3946C14.15 3.90889 13.9329 3.7524 13.8556 3.52038L13.7455 3.19019C13.4362 2.26215 12.5677 1.63617 11.5894 1.63617H8.04743C7.06918 1.63617 6.20068 2.26215 5.89133 3.19019ZM6.06129 5.61343C6.55041 5.61343 6.98466 5.30044 7.13933 4.83642L7.5084 3.72922C7.58574 3.4972 7.80286 3.34071 8.04743 3.34071H11.5894C11.834 3.34071 12.0511 3.4972 12.1284 3.72921L12.4975 4.83642C12.6522 5.30044 13.0864 5.61343 13.5756 5.61343H16.0684C16.696 5.61343 17.2048 6.1222 17.2048 6.74979V14.7043C17.2048 15.3319 16.696 15.8407 16.0684 15.8407H3.56844C2.94085 15.8407 2.43208 15.3319 2.43208 14.7043V6.74979C2.43208 6.1222 2.94085 5.61343 3.56844 5.61343H6.06129Z" fill="white"/>
</svg>
