<svg width="26" height="26" viewBox="0 0 26 26" fill="none" xmlns="http://www.w3.org/2000/svg">
<g clip-path="url(#clip0_414_3129)">
<path fill-rule="evenodd" clip-rule="evenodd" d="M0 4.50038C0 2.01489 2.00073 0 4.46875 0H15.8438C18.3118 0 20.3125 2.01489 20.3125 4.50038V13.2284C20.3125 15.7407 18.2849 17.6742 15.8438 17.6742L10.223 17.6742L5.588 20.4749C4.55906 21.0966 3.25 20.3502 3.25 19.1418V17.5084C1.38811 16.9895 0 15.3071 0 13.2284V4.50038ZM4.46875 2.45475C3.34692 2.45475 2.4375 3.37061 2.4375 4.50038V13.2284C2.4375 14.3314 3.32001 15.2195 4.46875 15.2195C4.79198 15.2195 5.10198 15.3488 5.33054 15.579C5.5591 15.8091 5.6875 16.1213 5.6875 16.4468V17.5521L9.25837 15.3944C9.44779 15.2799 9.66453 15.2195 9.88542 15.2195L15.8438 15.2195C16.9925 15.2195 17.875 14.3314 17.875 13.2284V4.50038C17.875 3.37061 16.9656 2.45475 15.8438 2.45475H4.46875Z" fill="#909090"/>
<path fill-rule="evenodd" clip-rule="evenodd" d="M22.1647 10.6782H23.5625C25.4322 10.6782 25.9926 12.2046 25.9926 14.0876V19.9063C25.9926 21.3565 25.0935 22.5953 23.826 23.088L23.8261 24.6384C23.8261 25.6942 22.6824 26.3478 21.7834 25.8046C21.7421 25.7796 21.7023 25.7521 21.6642 25.7224L18.5794 23.316L14.1213 23.3157C13.2356 23.3156 12.3741 22.9042 11.8191 22.2408C11.6258 22.0098 11.4621 21.739 11.3513 21.4333C11.1206 20.7965 11.1401 19.5 11.1401 19.5H13.6411C13.6411 19.5 13.6566 20.6274 13.6831 20.6591C13.7777 20.7721 13.9584 20.8609 14.1213 20.8609L18.9963 20.8613C19.2665 20.8613 19.529 20.9517 19.7426 21.1184L21.3884 22.4023L21.3884 22.0883C21.3884 21.4104 21.9341 20.8609 22.6072 20.8609C23.1307 20.8609 23.5551 20.4335 23.5551 19.9063V14.0876C23.5625 13.9103 23.4644 13.1329 22.1647 13.1329V10.6782Z" fill="#909090"/>
</g>
<defs>
<clipPath id="clip0_414_3129">
<rect width="26" height="26" fill="white"/>
</clipPath>
</defs>
</svg>
