<svg width="24" height="24" viewBox="0 0 24 24" fill="none" xmlns="http://www.w3.org/2000/svg">
<path d="M21.1538 2.84625C20.3588 2.05125 19.0698 2.05125 18.2748 2.84625L12 9.12106L5.72519 2.84625C4.93019 2.05125 3.64125 2.05125 2.84625 2.84625C2.05126 3.64124 2.05126 4.93019 2.84626 5.72518L9.12107 12L2.84625 18.2748C2.05125 19.0698 2.05125 20.3588 2.84625 21.1538C3.64124 21.9487 4.93018 21.9487 5.72518 21.1538L12 14.8789L18.2748 21.1537C19.0698 21.9487 20.3587 21.9487 21.1537 21.1538C21.9487 20.3588 21.9487 19.0698 21.1537 18.2748L14.8789 12L21.1538 5.72518C21.9487 4.93018 21.9488 3.64124 21.1538 2.84625Z" fill="#222222"/>
</svg>
