<svg width="22" height="22" viewBox="0 0 22 22" fill="none" xmlns="http://www.w3.org/2000/svg">
<path d="M9.61588 1.50977C10.4135 0.830077 11.5865 0.830077 12.3841 1.50977L13.7407 2.66588C14.0825 2.95714 14.5075 3.13316 14.9551 3.16889L16.7319 3.31067C17.7765 3.39403 18.606 4.22352 18.6893 5.26811L18.8311 7.04489C18.8668 7.49252 19.0429 7.91747 19.3341 8.25925L20.4902 9.61588C21.1699 10.4135 21.1699 11.5865 20.4902 12.3841L19.3341 13.7407C19.0429 14.0825 18.8668 14.5075 18.8311 14.9551L18.6893 16.7319C18.606 17.7765 17.7765 18.606 16.7319 18.6893L14.9551 18.8311C14.5075 18.8668 14.0825 19.0429 13.7407 19.3341L12.3841 20.4902C11.5865 21.1699 10.4135 21.1699 9.61588 20.4902L8.25925 19.3341C7.91747 19.0429 7.49252 18.8668 7.04489 18.8311L5.26811 18.6893C4.22352 18.606 3.39403 17.7765 3.31067 16.7319L3.16889 14.9551C3.13316 14.5075 2.95714 14.0825 2.66588 13.7407L1.50977 12.3841C0.830077 11.5865 0.830077 10.4135 1.50977 9.61588L2.66588 8.25925C2.95714 7.91747 3.13316 7.49252 3.16889 7.04489L3.31067 5.26811C3.39403 4.22352 4.22352 3.39403 5.26811 3.31067L7.04489 3.16889C7.49252 3.13316 7.91747 2.95714 8.25925 2.66588L9.61588 1.50977Z" fill="#FFCC00" stroke="#FFCC00" stroke-linecap="round" stroke-linejoin="round"/>
<path opacity="0.15" d="M7.5 15L6.5 9L9.25 11.25L11 8.5L12.75 11.25L15.5 9L14.5 15H7.5Z" fill="white"/>
<path d="M15.5 9L14.5 15H7.5L6.5 9M15.5 9L12.75 11.25L11 8.5M15.5 9C15.9142 9 16.25 8.66421 16.25 8.25C16.25 7.83579 15.9142 7.5 15.5 7.5C15.0858 7.5 14.75 7.83579 14.75 8.25C14.75 8.66421 15.0858 9 15.5 9ZM11 8.5L9.25 11.25L6.5 9M11 8.5C11.4142 8.5 11.75 8.16421 11.75 7.75C11.75 7.33579 11.4142 7 11 7C10.5858 7 10.25 7.33579 10.25 7.75C10.25 8.16421 10.5858 8.5 11 8.5ZM6.5 9C6.91421 9 7.25 8.66421 7.25 8.25C7.25 7.83579 6.91421 7.5 6.5 7.5C6.08579 7.5 5.75 7.83579 5.75 8.25C5.75 8.66421 6.08579 9 6.5 9Z" stroke="white" stroke-linecap="round" stroke-linejoin="round"/>
</svg>
