<svg width="22" height="22" viewBox="0 0 22 22" fill="none" xmlns="http://www.w3.org/2000/svg">
<path fill-rule="evenodd" clip-rule="evenodd" d="M4.4 2.2C3.18497 2.2 2.2 3.18497 2.2 4.4V17.6C2.2 18.815 3.18497 19.8 4.4 19.8H17.6C18.815 19.8 19.8 18.815 19.8 17.6V11C19.8 10.3925 20.2925 9.9 20.9 9.9C21.5075 9.9 22 10.3925 22 11V17.6C22 20.0301 20.0301 22 17.6 22H4.4C1.96995 22 0 20.0301 0 17.6V4.4C0 1.96995 1.96995 0 4.4 0H18.0264C20.221 0 22 1.77902 22 3.97356C22 5.0024 21.6009 5.99114 20.8868 6.73174L12.051 15.8948C11.4815 16.4854 10.5383 16.4939 9.95815 15.9138L5.08885 11.0445C4.65927 10.6149 4.65927 9.91843 5.08885 9.48885C5.51843 9.05927 6.21491 9.05927 6.64448 9.48885L10.9857 13.8301L19.3031 5.20464C19.6219 4.87408 19.8 4.43277 19.8 3.97356C19.8 2.99405 19.006 2.2 18.0264 2.2H4.4Z" fill="#E1E1E1"/>
</svg>
