<svg width="24" height="24" viewBox="0 0 24 24" fill="none" xmlns="http://www.w3.org/2000/svg">
<path fill-rule="evenodd" clip-rule="evenodd" d="M4.8 2.4C3.47452 2.4 2.4 3.47452 2.4 4.8V19.2C2.4 20.5255 3.47452 21.6 4.8 21.6H19.2C20.5255 21.6 21.6 20.5255 21.6 19.2V12C21.6 11.3373 22.1373 10.8 22.8 10.8C23.4627 10.8 24 11.3373 24 12V19.2C24 21.851 21.851 24 19.2 24H4.8C2.14903 24 0 21.851 0 19.2V4.8C0 2.14903 2.14903 0 4.8 0H19.6652C22.0593 0 24 1.94075 24 4.33479C24 5.45716 23.5647 6.53578 22.7856 7.34372L13.1466 17.3397C12.5253 17.984 11.4963 17.9934 10.8634 17.3605L5.55147 12.0485C5.08284 11.5799 5.08284 10.8201 5.55147 10.3515C6.0201 9.88284 6.7799 9.88284 7.24853 10.3515L11.9844 15.0874L21.058 5.67779C21.4057 5.31718 21.6 4.83575 21.6 4.33479C21.6 3.26623 20.7338 2.4 19.6652 2.4H4.8Z" fill="#E1E1E1"/>
</svg>
