<svg  width="28" height="28" viewBox="0 0 28 28" fill="none" xmlns="http://www.w3.org/2000/svg">
<g class="exit-icon" clip-path="url(#clip0_518_222)">
<path d="M10.5 2.625H5.25C3.80025 2.625 2.625 3.80025 2.625 5.25V22.75C2.625 24.1997 3.80025 25.375 5.25 25.375H10.5C11.9497 25.375 13.125 24.1997 13.125 22.75V18.375H15.75V22.75C15.75 25.6495 13.3995 28 10.5 28H5.25C2.3505 28 0 25.6495 0 22.75V5.25C0 2.3505 2.35051 0 5.25 0H10.5C13.3995 0 15.75 2.35051 15.75 5.25V9.57368H13.125V5.25C13.125 3.80025 11.9497 2.625 10.5 2.625Z" fill="#909090"/>
<path d="M20.3925 7.71753C19.8791 8.23009 19.8791 9.06112 20.3925 9.57368L23.5116 12.6874L9.64177 12.6874C8.91566 12.6874 8.32703 13.275 8.32703 13.9999C8.32703 14.7248 8.91566 15.3124 9.64177 15.3124H23.5116L20.035 18.7831C19.5215 19.2956 19.5215 20.1267 20.035 20.6392C20.5484 21.1518 21.3809 21.1518 21.8943 20.6392L27.6153 14.928C28.1288 14.4154 28.1288 13.5844 27.6153 13.0718L22.2519 7.71753C21.7384 7.20496 20.906 7.20496 20.3925 7.71753Z" fill="#909090"/>
</g>
<defs>
<clipPath id="clip0_518_222">
<rect width="28" height="28" fill="white"/>
</clipPath>
</defs>
</svg>
