<svg width="26" height="26" viewBox="0 0 26 26" fill="none" xmlns="http://www.w3.org/2000/svg">
<g clip-path="url(#clip0_518_228)">
<path fill-rule="evenodd" clip-rule="evenodd" d="M21.9382 22.75V6.2212C21.9382 6.00571 21.8526 5.79905 21.7002 5.64667L18.729 2.67547C18.5766 2.5231 18.3699 2.4375 18.1545 2.4375H4.87539C4.42666 2.4375 4.06289 2.80126 4.06289 3.24999L4.06273 22.75C4.06272 23.1987 4.42649 23.5625 4.87523 23.5625H21.1257C21.5744 23.5625 21.9382 23.1987 21.9382 22.75ZM21.2929 25.9958C21.2376 25.9986 21.1819 26 21.1259 26H4.87523C3.08029 26 1.62499 24.5449 1.625 22.75L1.62516 3.24997C1.62517 1.45506 3.08024 0 4.87516 0L18.1545 0C19.0164 0 19.8433 0.342407 20.4528 0.951898L23.424 3.9231C24.0335 4.53259 24.3759 5.35924 24.3759 6.2212V22.75C24.3759 24.4889 23.0102 25.9088 21.2929 25.9958Z" fill="#E1E1E1"/>
<path d="M14.9422 14.6139C14.8153 14.4446 14.5613 14.4446 14.4344 14.6139L11.989 17.8744L10.6582 16.2775C10.5313 16.1253 10.2975 16.1253 10.1706 16.2775L6.57433 20.593C6.40206 20.7997 6.54906 21.1136 6.81816 21.1136H19.1822C19.4437 21.1136 19.593 20.815 19.4361 20.6058L14.9422 14.6139Z" fill="#E1E1E1"/>
<path d="M12.9787 10.0015C12.9787 11.4177 11.8307 12.5658 10.4144 12.5658C8.99816 12.5658 7.85007 11.4177 7.85007 10.0015C7.85007 8.58522 8.99816 7.43713 10.4144 7.43713C11.8307 7.43713 12.9787 8.58522 12.9787 10.0015Z" fill="#E1E1E1"/>
</g>
<defs>
<clipPath id="clip0_518_228">
<rect width="26" height="26" fill="white"/>
</clipPath>
</defs>
</svg>
