<svg width="30" height="30" viewBox="0 0 30 30" fill="none" xmlns="http://www.w3.org/2000/svg">
<g clip-path="url(#clip0_518_224)">
<path fill-rule="evenodd" clip-rule="evenodd" d="M28.125 6.53432V22.5078C28.125 24.0303 27.2177 25.3408 25.9144 25.9283C26.1299 25.4551 26.25 24.9293 26.25 24.3754V7.9027C26.25 7.01573 25.9637 6.20548 25.3991 5.53349C25.3991 5.53349 25.176 5.27144 25.0682 5.17011L22.6451 2.89279C21.9497 2.23922 21.0312 1.87537 20.0769 1.87537H7.06871C7.71816 0.758599 8.92776 0.0078125 10.3127 0.0078125H21.4663C22.4306 0.0078125 23.358 0.379345 24.0555 1.04522L26.9643 3.82173C27.7056 4.52934 28.125 5.50951 28.125 6.53432ZM21.4663 10.2843V26.2578C21.4663 26.7756 21.0465 27.1953 20.5288 27.1953H5.625C5.10723 27.1953 4.6875 26.7756 4.6875 26.2578L4.68766 7.50781C4.68766 6.99004 5.1074 6.57031 5.62516 6.57031H17.62C17.8611 6.57031 18.093 6.6632 18.2674 6.82967L21.1761 9.60617C21.3614 9.78307 21.4663 10.0281 21.4663 10.2843ZM24.2788 26.2578V10.2843C24.2788 9.25951 23.8593 8.27934 23.118 7.57173L20.2093 4.79522C19.5117 4.12934 18.5844 3.75781 17.62 3.75781H5.62516C3.55411 3.75781 1.87518 5.43673 1.87516 7.50778L1.875 26.2578C1.87498 28.3289 3.55392 30.0078 5.625 30.0078H20.5288C22.5998 30.0078 24.2788 28.3289 24.2788 26.2578ZM10.3821 16.8828C11.9354 16.8828 13.1946 15.6236 13.1946 14.0703C13.1946 12.517 11.9354 11.2578 10.3821 11.2578C8.82877 11.2578 7.56957 12.517 7.56957 14.0703C7.56957 15.6236 8.82877 16.8828 10.3821 16.8828ZM15.7839 17.6865C15.6622 17.5206 15.4144 17.5206 15.2927 17.6865L12.2324 21.8596L10.2276 19.3992C10.1057 19.2496 9.87721 19.2496 9.75532 19.3992L6.09954 23.8858C5.9374 24.0848 6.07899 24.3828 6.33567 24.3828H20.0935C20.343 24.3828 20.4866 24.0993 20.3391 23.8981L15.7839 17.6865Z" fill="#909090"/>
</g>
<defs>
<clipPath id="clip0_518_224">
<rect width="30" height="30" fill="white"/>
</clipPath>
</defs>
</svg>
