<svg width="27" height="46" viewBox="0 0 27 46" fill="none" xmlns="http://www.w3.org/2000/svg">
<path d="M13.8215 1H13.8205C8.15622 1 3.56445 5.63586 3.56445 11.3545V25.7231C3.56445 31.4418 8.15622 36.0776 13.8205 36.0776H13.8215C19.4857 36.0776 24.0775 31.4418 24.0775 25.7231V11.3545C24.0775 5.63586 19.4857 1 13.8215 1Z" fill="#FFCC00"/>
<path d="M1 8.63663H10.391L8.67 20.5449H11.9" stroke="black" stroke-width="1.5"/>
<path d="M3.55763 16.2743C4.47828 16.2743 5.22463 15.5208 5.22463 14.5913C5.22463 13.6618 4.47828 12.9083 3.55763 12.9083C2.63697 12.9083 1.89062 13.6618 1.89062 14.5913C1.89062 15.5208 2.63697 16.2743 3.55763 16.2743Z" stroke="black" stroke-width="1.5"/>
<path d="M16.1279 16.2743C17.0486 16.2743 17.7949 15.5208 17.7949 14.5913C17.7949 13.6618 17.0486 12.9083 16.1279 12.9083C15.2073 12.9083 14.4609 13.6618 14.4609 14.5913C14.4609 15.5208 15.2073 16.2743 16.1279 16.2743Z" stroke="black" stroke-width="1.5"/>
<path d="M23.1787 18.7327C23.9268 18.7327 24.6442 18.4326 25.1731 17.8986C25.7021 17.3646 25.9992 16.6403 25.9992 15.8851C25.9992 15.1298 25.7021 14.4056 25.1731 13.8715C24.6442 13.3375 23.9268 13.0375 23.1787 13.0375" stroke="black" stroke-width="1.5"/>
<path d="M2.15527 1C2.17259 1.77167 2.49238 2.50489 3.04448 3.03883C3.59658 3.57276 4.33591 3.86379 5.10027 3.84809C5.47934 3.85681 5.8564 3.79005 6.20991 3.65163C6.56342 3.51321 6.88647 3.30584 7.16059 3.04137C7.43472 2.77689 7.65455 2.46049 7.80755 2.11023C7.96055 1.75997 8.0437 1.38271 8.05227 1C8.05645 1.37827 8.13439 1.752 8.28164 2.09985C8.42889 2.4477 8.64257 2.76286 8.91047 3.02734C9.17838 3.29181 9.49525 3.50042 9.84301 3.64124C10.1908 3.78207 10.5626 3.85236 10.9373 3.84809C11.6938 3.85644 12.4226 3.56108 12.9634 3.02698C13.5043 2.49288 13.8128 1.76377 13.8213 1" stroke="black" stroke-width="1.5"/>
<path d="M13.5645 8.63663H18.6925" stroke="black" stroke-width="1.5"/>
<path d="M18.3078 23.396C17.3707 24.7909 16.1096 25.9329 14.6346 26.7223C13.1597 27.5116 11.5157 27.9243 9.84627 27.9243C8.17687 27.9243 6.53287 27.5116 5.05788 26.7223C3.5829 25.9329 2.3218 24.7909 1.38477 23.396" stroke="black" stroke-width="1.5"/>
<path d="M19.9752 11.7432H12.2832V11.8724H19.9752V11.7432Z" fill="#FFCC00"/>
<path d="M8.99951 37.3457H18.9995C20.3445 37.3651 21.6267 37.923 22.5644 38.8967C23.502 39.8704 24.0182 41.1802 23.9995 42.5381C24.0121 43.4433 23.668 44.3166 23.043 44.9658C22.418 45.615 21.5632 45.987 20.6665 46H7.33251C6.43587 45.987 5.58106 45.615 4.95604 44.9658C4.33102 44.3166 3.98696 43.4433 3.99951 42.5381C3.98082 41.1802 4.49703 39.8704 5.43466 38.8967C6.37229 37.923 7.65455 37.3651 8.99951 37.3457Z" fill="#222222"/>
</svg>
