<svg width="80" height="49" viewBox="0 0 80 49" fill="none" xmlns="http://www.w3.org/2000/svg">
<g clip-path="url(#clip0_552_527)">
<path d="M77.6057 44.9281H49.7544V33.3212H77.6057V44.9281ZM56.2463 40.1096H71.093V38.0316C70.9721 38.0221 70.8799 38.011 70.7892 38.011C66.0964 38.0014 61.4042 37.9919 56.7124 37.9824C56.4468 37.9824 56.2575 38.0825 56.2511 38.3605C56.2368 38.9388 56.2463 39.5171 56.2463 40.1096Z" fill="black"/>
<path d="M45.0187 0C44.8739 1.08666 44.7387 2.17492 44.586 3.26158C44.1501 6.33305 43.7105 9.40876 43.2672 12.4887C42.8017 15.7349 42.3356 18.9806 41.8689 22.2258C41.4352 25.2634 41.0009 28.3004 40.5661 31.3369C40.1016 34.5832 39.6365 37.8294 39.171 41.0756C39.1233 41.4124 39.0819 41.7492 39.031 42.1337H46.2483V49H31.0199C33.0274 34.974 35.0344 20.948 37.0409 6.92193H8.19385V0H45.0187Z" fill="black"/>
<path d="M47.3223 31.2655V26.5677H60.233V24.2482H49.7657V10.3519H56.2099V12.7604H71.1186V10.363H77.5995V24.1704H66.9715V26.5042H79.9999V31.2702L47.3223 31.2655ZM71.1075 17.277H70.7464C66.3368 17.277 61.9272 17.277 57.5175 17.277C57.2793 17.2754 57.0412 17.2898 56.8049 17.3199C56.4469 17.3692 56.2258 17.5646 56.2274 17.9554C56.2274 18.2731 56.2465 18.5909 56.2354 18.9086C56.2226 19.2708 56.3435 19.4091 56.7396 19.4075C61.4006 19.3932 66.06 19.3979 70.721 19.3979C70.8482 19.3979 70.9755 19.3852 71.1075 19.3773V17.277Z" fill="black"/>
<path d="M0 11.4941C0.171804 11.4941 0.343607 11.5069 0.515411 11.5069H26.8475V16.8147H6.39173V26.9664H27.2213V32.3457H0.550408C0.367469 32.3457 0.182939 32.3695 0 32.3823V11.4941Z" fill="black"/>
</g>
<defs>
<clipPath id="clip0_552_527">
<rect width="80" height="49" fill="white"/>
</clipPath>
</defs>
</svg>
