<svg width="15" height="15" viewBox="0 0 15 15" fill="none" xmlns="http://www.w3.org/2000/svg">
<g clip-path="url(#clip0_322_2228)">
<path fill-rule="evenodd" clip-rule="evenodd" d="M11.7188 1.875H3.28125C2.5046 1.875 1.875 2.5046 1.875 3.28125V11.7188C1.875 12.4954 2.5046 13.125 3.28125 13.125H11.7188C12.4954 13.125 13.125 12.4954 13.125 11.7188V3.28125C13.125 2.5046 12.4954 1.875 11.7188 1.875ZM3.28125 0.46875C1.72795 0.46875 0.46875 1.72795 0.46875 3.28125V11.7188C0.46875 13.2721 1.72795 14.5312 3.28125 14.5312H11.7188C13.2721 14.5312 14.5312 13.2721 14.5312 11.7188V3.28125C14.5312 1.72795 13.2721 0.46875 11.7188 0.46875H3.28125Z" fill="#222222"/>
</g>
<path d="M5.12583 6.95312C4.80132 6.95312 4.54688 7.20246 4.54688 7.5C4.54688 7.79754 4.80132 8.04688 5.12583 8.04688H9.87417C10.1987 8.04688 10.4531 7.79754 10.4531 7.5C10.4531 7.20246 10.1987 6.95312 9.87417 6.95312H5.12583Z" fill="#222222"/>
<defs>
<clipPath id="clip0_322_2228">
<rect width="15" height="15" fill="white"/>
</clipPath>
</defs>
</svg>
