<svg width="22" height="22" viewBox="0 0 22 22" fill="none" xmlns="http://www.w3.org/2000/svg">
<g clip-path="url(#clip0_490_330)">
<path fill-rule="evenodd" clip-rule="evenodd" d="M13.2485 4.51774L17.4862 8.76169L5.45146 20.823C5.29256 20.9823 5.07705 21.0718 4.85235 21.0719L1.15842 21.3125C0.924456 21.3126 0.68749 21.0752 0.6875 20.8409L0.965576 17.1794C0.965585 16.9543 1.05486 16.7383 1.21376 16.5791L13.2485 4.51774ZM13.359 7.23641L14.7725 8.65186L4.37614 19.0713L2.72746 19.3066L2.96266 17.6558L13.359 7.23641Z" fill="white"/>
<path fill-rule="evenodd" clip-rule="evenodd" d="M14.6635 3.10331L16.7823 0.980587C17.1724 0.589804 17.8048 0.589805 18.1949 0.980587L21.02 3.81088C21.41 4.20166 21.41 4.83524 21.02 5.22603L18.9011 7.34875L14.6635 3.10331Z" fill="white"/>
</g>
<defs>
<clipPath id="clip0_490_330">
<rect width="22" height="22" fill="white"/>
</clipPath>
</defs>
</svg>
