<svg width="25" height="35" viewBox="0 0 25 35" fill="none" xmlns="http://www.w3.org/2000/svg">
<path d="M7.08328 25.087C7.08328 22.5296 7.08328 19.9721 7.08328 17.4147C7.08328 17.1476 7.19474 16.7838 6.88558 16.6534C6.57642 16.523 6.41868 16.8637 6.2273 17.0467C5.4933 17.747 4.79296 18.4873 4.02111 19.1498C2.9443 20.0605 1.61932 19.9806 0.721278 19.0341C-0.254579 17.9994 -0.258785 16.8995 0.822229 15.7848C2.55311 13.9992 4.32606 12.2536 6.09901 10.5164C6.38535 10.2314 6.72681 10.0077 7.10252 9.85907C7.47823 9.71045 7.88031 9.64 8.28417 9.65204C11.0877 9.66466 13.8911 9.68359 16.6967 9.63942C17.8345 9.61418 18.6316 10.2304 19.3488 10.9371C21.0313 12.5719 22.6689 14.2467 24.2617 15.9615C25.1808 16.9457 25.124 18.3275 24.2512 19.1709C23.3784 20.0142 21.9966 20.0121 21.0082 19.1267C20.3604 18.5378 19.7694 17.8774 19.1385 17.2843C18.8756 17.0404 18.6695 16.5188 18.2467 16.7165C17.9166 16.8679 18.0785 17.3474 18.0785 17.6881C18.0701 22.2085 18.0701 26.7281 18.0785 31.2471C18.0785 31.5983 18.0785 31.9495 18.0785 32.2987C18.0533 33.9181 17.1089 34.9381 15.6199 34.9549C14.1309 34.9717 13.0499 33.9033 13.0246 32.2839C12.991 30.0777 13.0246 27.8673 12.9994 25.6611C12.9994 25.209 13.2791 24.3719 12.5241 24.4203C11.8385 24.4645 12.1455 25.2615 12.1455 25.7453C12.1455 27.8484 12.196 29.9515 12.1455 32.0547C12.1014 33.9055 10.993 35.0411 9.41145 34.9991C8.04231 34.9549 7.11062 34.059 7.098 32.6688C7.06856 30.145 7.098 27.6213 7.098 25.0975L7.08328 25.087Z" fill="#F43B00"/>
<path d="M16.8253 4.45076C17.0356 6.70322 14.7495 8.76851 12.6064 8.80847C10.2382 8.85263 8.16032 6.74529 8.18976 4.38136C8.21921 2.01743 10.213 -0.0373416 12.5033 0.000514959C15.0081 0.0425778 16.8253 1.92489 16.8253 4.45076Z" fill="#F43B00"/>
</svg>
