<svg width="23" height="35" viewBox="0 0 23 35" fill="none" xmlns="http://www.w3.org/2000/svg">
<path d="M15.7554 14.0702V15.4205C15.7554 21.0202 15.7554 26.6157 15.7554 32.2071C15.7554 34.0613 15.0647 35.0209 13.7681 34.9978C12.5752 34.9768 11.9227 33.9878 11.9163 32.1861C11.9163 29.8426 11.9163 27.4991 11.8697 25.1577C11.8697 24.8364 12.0964 24.2421 11.482 24.2589C10.982 24.2736 11.1599 24.8112 11.1557 25.1178C11.1261 27.4949 11.1282 29.8741 11.1155 32.2575C11.1155 34.0655 10.4417 35.0188 9.20862 34.9999C7.97553 34.981 7.28271 34.0445 7.27847 32.2407C7.27847 26.3609 7.27847 20.4812 7.29542 14.6141V14.0912C6.75091 14.0492 6.57082 14.4545 6.31446 14.7023C5.08349 15.8971 3.88218 17.134 2.63426 18.3183C1.8122 19.11 1.11514 19.0827 0.437155 18.3561C-0.198458 17.6716 -0.156084 17.0962 0.663857 16.2772C2.55163 14.3873 4.44787 12.5142 6.35471 10.6327C6.67003 10.301 7.0516 10.038 7.4751 9.86049C7.89861 9.68298 8.35477 9.59482 8.81454 9.60164C10.614 9.61424 12.4135 9.61424 14.213 9.60164C14.6717 9.59319 15.1271 9.67916 15.5505 9.8541C15.9739 10.029 16.3561 10.2892 16.6728 10.618C18.5797 12.5079 20.4717 14.3705 22.3595 16.2604C23.1434 17.0437 23.1942 17.6989 22.5862 18.3603C21.9294 19.0827 21.2704 19.0953 20.3933 18.2826C19.2089 17.1886 18.086 16.0252 16.9228 14.9102C16.6305 14.6183 16.4038 14.2382 15.7554 14.0702Z" fill="#F43B00"/>
<path d="M11.4743 8.66068C9.10767 8.64808 7.12668 6.72037 7.10761 4.41048C7.08431 2.04809 9.20302 -0.0434129 11.576 0.000684998C13.9066 0.0447829 15.985 2.13418 15.9532 4.41048C15.9249 5.56176 15.4378 6.65509 14.5986 7.45151C13.7593 8.24794 12.636 8.68266 11.4743 8.66068Z" fill="#F43B00"/>
</svg>
