<svg width="29" height="35" viewBox="0 0 29 35" fill="none" xmlns="http://www.w3.org/2000/svg">
<path d="M21.7937 18.5925C21.7937 22.4987 21.8063 26.4028 21.7937 30.3069C21.7937 31.7738 21.5255 33.1674 20.3079 34.1774C19.2015 35.0932 17.963 35.2252 16.6805 34.6699C15.4231 34.1292 14.6561 33.1611 14.6268 31.7633C14.5828 29.7411 14.61 27.7167 14.6058 25.6861C14.6058 25.4053 14.6058 25.1266 14.6058 24.8479C14.6058 24.5691 14.5241 24.2443 14.1658 24.2506C13.7466 24.2506 13.8242 24.6111 13.8263 24.8793C13.8263 26.9036 13.8682 28.928 13.8263 30.9565C13.799 32.5575 13.2123 33.8903 11.6867 34.6364C9.3501 35.7764 6.69498 34.1041 6.66355 31.4343C6.62164 27.526 6.65097 23.6156 6.65097 19.699C6.65097 19.4559 6.65097 19.2107 6.65097 18.9655C6.6384 18.3599 6.36178 18.4123 6.0223 18.7287C5.68281 19.0452 5.33494 19.4245 4.9745 19.7514C3.71715 20.8725 2.17479 20.7992 0.959348 19.5418C-0.256095 18.2845 -0.329441 16.5891 0.812656 15.4177C2.38714 13.8013 3.98049 12.1989 5.5927 10.6104C5.90734 10.2821 6.28643 10.0224 6.70618 9.84746C7.12593 9.67256 7.5773 9.58628 8.03197 9.59405C12.0786 9.6171 16.1272 9.60662 20.1864 9.59405C20.6232 9.57822 21.0586 9.65081 21.4666 9.80746C21.8746 9.9641 22.2468 10.2016 22.5607 10.5056C24.0863 11.9872 25.637 13.4395 27.1186 14.963C28.6673 16.5514 28.6442 18.3934 27.1501 19.7472C25.9807 20.795 24.4258 20.8243 23.2774 19.7472C22.8518 19.2984 22.4549 18.8231 22.0892 18.3243L21.7937 18.5925Z" fill="#F43B00"/>
<path d="M18.4974 4.29609C18.5156 5.45895 18.0753 6.58221 17.2718 7.42299C16.4682 8.26377 15.3661 8.75449 14.2036 8.78904C11.8398 8.83724 9.80284 6.81919 9.80284 4.41973C9.78608 1.97837 11.7476 -0.0187278 14.1302 0.000132497C16.5129 0.0189928 18.4912 1.97418 18.4974 4.29609Z" fill="#F43B00"/>
</svg>
