<svg width="24" height="35" viewBox="0 0 24 35" fill="none" xmlns="http://www.w3.org/2000/svg">
<path d="M16.7476 15.0196V16.2615C16.7476 21.5557 16.7476 26.8499 16.7476 32.1441C16.7476 33.2682 16.575 34.3544 15.3309 34.8196C13.7479 35.4132 12.3712 34.367 12.3418 32.5041C12.306 30.1885 12.3418 27.873 12.3186 25.5574C12.3186 25.1133 12.5607 24.3197 11.946 24.3197C11.2219 24.3197 11.5145 25.1343 11.5082 25.5953C11.4745 27.6625 11.5082 29.7317 11.4913 31.801C11.503 32.1859 11.4819 32.5711 11.4282 32.9524C11.1987 34.2597 10.2725 35.0764 9.14841 34.9943C7.98432 34.908 7.17177 34.0344 7.08336 32.7251C7.04757 32.1673 7.06862 31.6031 7.06862 31.0411C7.06862 25.989 7.06862 20.9404 7.06862 15.8953C7.06862 15.59 7.21387 15.1522 6.92758 15.0132C6.54025 14.8238 6.35291 15.3016 6.12135 15.5248C5.08777 16.5247 4.11314 17.5856 3.05009 18.5518C1.89231 19.6254 0.347211 19.156 0.0335597 17.6951C-0.0225061 17.4369 -0.00812251 17.1684 0.0752044 16.9177C0.158531 16.6669 0.307736 16.4432 0.507195 16.27C2.46068 14.3144 4.41837 12.3419 6.38659 10.399C6.65149 10.1402 6.96538 9.93692 7.30985 9.80101C7.65433 9.6651 8.02247 9.59931 8.3927 9.60749C10.7082 9.60749 13.0238 9.60749 15.3393 9.60749C15.7787 9.61024 16.2129 9.70257 16.6154 9.87883C17.0179 10.0551 17.3802 10.3116 17.6802 10.6326C19.4568 12.4198 21.2587 14.2007 23.0312 15.9984C23.8921 16.8657 23.9742 17.8614 23.2796 18.6002C22.5554 19.3728 21.5177 19.3328 20.5935 18.4234C19.4042 17.2509 18.2569 16.0342 17.0928 14.8448L16.7476 15.0196Z" fill="#F43B00"/>
<path d="M16.1555 4.30488C16.1555 6.72779 14.3452 8.58444 11.9455 8.59917C9.44045 8.6118 7.53749 6.71937 7.56275 4.24173C7.59222 1.96407 9.62148 -0.0125701 11.9244 6.01983e-05C12.4849 0.00473909 13.039 0.119816 13.5551 0.338716C14.0711 0.557615 14.539 0.876048 14.9319 1.27582C15.3248 1.67559 15.6351 2.14887 15.8451 2.6686C16.055 3.18834 16.1605 3.74436 16.1555 4.30488Z" fill="#F43B00"/>
</svg>
