<svg width="26" height="35" viewBox="0 0 26 35" fill="none" xmlns="http://www.w3.org/2000/svg">
<path d="M6.26599 17.2252C5.69557 17.9466 5.19645 18.7247 4.55892 19.3622C3.40758 20.5135 1.89554 20.4297 0.763087 19.249C-0.268707 18.1752 -0.262416 16.7324 0.832293 15.6083C2.49323 13.9117 4.18772 12.2403 5.86544 10.5752C6.17017 10.2603 6.53663 10.0117 6.94188 9.845C7.34713 9.67828 7.78243 9.59702 8.22053 9.60631C11.4361 9.62308 14.6518 9.62308 17.8674 9.60631C18.3382 9.59936 18.8053 9.69091 19.2387 9.8751C19.6721 10.0593 20.0622 10.332 20.384 10.6758C21.9107 12.2089 23.4479 13.7314 24.9704 15.2665C26.2518 16.5604 26.3105 18.1543 25.1382 19.3601C24.0099 20.5219 22.5105 20.4422 21.1872 19.1106C20.6251 18.5443 20.1386 17.9131 19.6017 17.307C19.0565 17.7998 19.22 18.2088 19.2179 18.5653C19.2054 23.0008 19.2305 27.4383 19.197 31.8759C19.1844 34.059 17.1732 35.571 15.3089 34.793C13.8409 34.1827 13.3376 32.8846 13.3166 31.3914C13.2893 29.2943 13.3166 27.1971 13.3166 25.1C13.3166 24.798 13.5494 24.2905 12.9768 24.3031C12.5281 24.3031 12.5344 24.7728 12.5344 25.1231C12.5344 27.4635 12.5469 29.8039 12.5113 32.1443C12.4903 33.5536 11.6724 34.5434 10.3533 34.8832C9.18312 35.1873 7.99194 34.707 7.28101 33.6249C6.82173 32.9202 6.79447 32.1066 6.79237 31.3033C6.79237 27.0755 6.79237 22.8477 6.77769 18.6198C6.76721 18.2633 6.93078 17.8565 6.26599 17.2252Z" fill="#F43B00"/>
<path d="M8.65553 4.15584C8.69957 1.87415 10.7841 -0.0594203 13.1665 0.00139682C14.2434 0.0259628 15.2724 0.451797 16.0517 1.19546C16.8311 1.93912 17.3047 2.947 17.3796 4.02162C17.5055 6.80033 15.4041 8.88699 12.8142 8.8094C10.5031 8.73809 8.59891 6.61998 8.65553 4.15584Z" fill="#F43B00"/>
</svg>
