<svg width="28" height="28" viewBox="0 0 28 28" fill="none" xmlns="http://www.w3.org/2000/svg">
<g clip-path="url(#clip0_518_195)">
<path fill-rule="evenodd" clip-rule="evenodd" d="M20.2072 12.0079C20.2072 16.6193 16.4977 20.3576 11.9219 20.3576C7.34615 20.3576 3.63674 16.6193 3.63674 12.0079C3.63674 7.39651 7.34615 3.65823 11.9219 3.65823C16.4977 3.65823 20.2072 7.39651 20.2072 12.0079ZM20.7368 18.7191C22.1378 16.8531 22.9689 14.5283 22.9689 12.0079C22.9689 5.85938 18.023 0.875 11.9219 0.875C5.82089 0.875 0.875 5.85938 0.875 12.0079C0.875 18.1565 5.82089 23.1408 11.9219 23.1408C14.5266 23.1408 16.9207 22.2324 18.8093 20.7128L24.7677 26.7174C25.307 27.2609 26.1813 27.2609 26.7206 26.7174C27.2598 26.174 27.2598 25.2928 26.7205 24.7494L20.7368 18.7191Z" fill="#909090"/>
</g>
<defs>
<clipPath id="clip0_518_195">
<rect width="28" height="28" fill="white"/>
</clipPath>
</defs>
</svg>
