<svg width="20" height="20" viewBox="0 0 20 20" fill="none" xmlns="http://www.w3.org/2000/svg">
<g clip-path="url(#clip0_414_2607)">
<path fill-rule="evenodd" clip-rule="evenodd" d="M7.2597 1.6712C7.42169 0.706826 8.26263 0 9.24799 0H10.752C11.7374 0 12.5783 0.706826 12.7403 1.6712L12.9393 2.8563C13.5978 3.12326 14.2108 3.47702 14.7638 3.903L15.8989 3.48107C16.8217 3.13808 17.8591 3.50726 18.3517 4.35396L19.1037 5.64631C19.5964 6.493 19.4 7.56901 18.6392 8.1904L17.704 8.95433C17.7508 9.29661 17.7749 9.64571 17.7749 10C17.7749 10.3541 17.7508 10.703 17.704 11.0451L18.6403 11.8099C19.401 12.4313 19.5975 13.5073 19.1048 14.354L18.3528 15.6463C17.8601 16.493 16.8227 16.8622 15.9 16.5192L14.7639 16.0969C14.2108 16.5229 13.5978 16.8767 12.9393 17.1437L12.7403 18.3288C12.5783 19.2932 11.7374 20 10.752 20H9.24799C8.26263 20 7.42169 19.2932 7.2597 18.3288L7.06063 17.1437C6.40213 16.8767 5.78914 16.5229 5.23603 16.0969L4.09998 16.5192C3.17724 16.8622 2.13984 16.493 1.64716 15.6463L0.895157 14.354C0.402477 13.5073 0.598948 12.4313 1.35969 11.8099L2.29595 11.0451C2.2492 10.703 2.2251 10.3541 2.2251 10C2.2251 9.64571 2.24923 9.29662 2.29603 8.95434L1.36077 8.19041C0.60003 7.56902 0.40356 6.49301 0.896239 5.64632L1.64824 4.35397C2.14092 3.50727 3.17833 3.13809 4.10106 3.48108L5.23614 3.90301C5.78922 3.47703 6.40217 3.12327 7.06064 2.8563L7.2597 1.6712ZM5.68061 10C5.68061 7.63307 7.61446 5.71429 9.99999 5.71429C12.3855 5.71429 14.3194 7.63307 14.3194 10C14.3194 12.3669 12.3855 14.2857 9.99999 14.2857C7.61446 14.2857 5.68061 12.3669 5.68061 10ZM9.99999 7.42857C8.56867 7.42857 7.40836 8.57984 7.40836 10C7.40836 11.4202 8.56867 12.5714 9.99999 12.5714C11.4313 12.5714 12.5916 11.4202 12.5916 10C12.5916 8.57984 11.4313 7.42857 9.99999 7.42857Z" fill="#222222"/>
</g>
<defs>
<clipPath id="clip0_414_2607">
<rect width="20" height="20" fill="white"/>
</clipPath>
</defs>
</svg>
