<svg xmlns="http://www.w3.org/2000/svg" fill="none" viewBox="0 0 1850 34"><path stroke="#CCC" stroke-miterlimit="10" stroke-width="4" d="m2 3 34.836 28L71.668 3l34.833 28 34.834-28 34.833 28 34.836-28 34.833 28 34.836-28 34.833 28 34.836-28 34.833 28 34.836-28 34.833 28L489.68 3l34.834 28 34.834-28 34.836 28 34.834-28 34.835 28L698.69 3l34.835 28L768.36 3l34.835 28 34.836-28 34.837 28 34.837-28 34.837 28 34.837-28 34.841 28 34.83-28 34.84 28 34.83-28 34.83 28 34.84-28 34.83 28 34.84-28 34.83 28 34.83-28 34.84 28 34.84-28 34.84 28 34.83-28 34.84 28 34.84-28 34.84 28 34.84-28 34.84 28 34.83-28 34.84 28 34.84-28 34.84 28 34.84-28 34.84 28"/></svg>