<svg width="1000" height="26" viewBox="0 0 1000 26" fill="none" xmlns="http://www.w3.org/2000/svg">
<path d="M0 25.592V12.474L0.510417 12.502H0.583333C4.8125 12.502 8.58333 7.476 9.97917 0H18.1146C19.5312 7.476 23.3229 12.502 27.5625 12.502H27.625C31.8542 12.502 35.625 7.476 37.0312 0H45.1562C46.5625 7.476 50.3646 12.502 54.5938 12.502H54.6563C58.8854 12.502 62.6563 7.476 64.0625 0H72.1875C73.6042 7.476 77.3958 12.502 81.625 12.502H81.6979C85.9271 12.502 89.6875 7.476 91.1042 0H99.2188C100.625 7.476 104.427 12.502 108.656 12.502H108.719C109.818 12.4726 110.901 12.1449 111.903 11.5387C112.906 10.9324 113.807 10.06 114.552 8.974C116.323 6.454 117.552 3.374 118.125 0.0139998H126.25C126.417 0.854 126.625 1.708 126.854 2.534C126.948 2.87 127.063 3.164 127.167 3.458L127.271 3.794L127.375 4.102L127.635 4.844C127.854 5.404 128.104 5.964 128.375 6.496L128.458 6.664L128.552 6.86C130.01 9.898 132.385 11.914 135.052 12.376V12.404L135.302 12.446C135.436 12.4787 135.572 12.4974 135.708 12.502H135.771C140 12.502 143.76 7.49 145.177 0.0139998H153.302C154.719 7.49 158.51 12.502 162.74 12.502H162.802C167.031 12.502 170.802 7.49 172.208 0.0139998H180.333C181.74 7.49 185.521 12.502 189.76 12.502H189.823C194.062 12.502 197.844 7.49 199.229 0.0139998H207.354C208.771 7.49 212.562 12.502 216.802 12.502H216.865C221.083 12.502 224.854 7.49 226.271 0.0139998H234.396C235.802 7.49 239.604 12.502 243.833 12.502H243.917C248.146 12.502 251.906 7.49 253.313 0.0139998H261.438C262.854 7.49 266.646 12.502 270.885 12.502H270.927C275.146 12.502 278.927 7.49 280.333 0.0139998H288.458C289.875 7.49 293.667 12.502 297.896 12.502H297.958C299.062 12.4738 300.149 12.1453 301.155 11.5366C302.161 10.9278 303.065 10.0513 303.812 8.96C305.562 6.44 306.792 3.36 307.375 0.0139998H315.5C315.667 0.882 315.865 1.722 316.104 2.548L316.417 3.528L316.521 3.808L316.625 4.144V4.172C316.909 4.97744 317.236 5.75414 317.604 6.496L317.698 6.664L317.781 6.86C318.497 8.3625 319.449 9.63614 320.57 10.5915C321.691 11.5468 322.954 12.1607 324.271 12.39V12.418L324.521 12.46C324.658 12.4934 324.798 12.5122 324.938 12.516H325C329.219 12.516 332.99 7.504 334.406 0.0279998H342.531C343.938 7.504 347.74 12.516 351.969 12.516H352.031C356.26 12.516 360.031 7.504 361.438 0.0279998H369.563C370.979 7.504 374.771 12.516 379 12.516H379.062C383.292 12.516 387.062 7.504 388.469 0.0279998H396.594C398.01 7.504 401.802 12.516 406.031 12.516H406.094C410.323 12.516 414.094 7.504 415.5 0.0279998H423.625C425.042 7.504 428.833 12.516 433.063 12.516H433.135C437.354 12.516 441.125 7.504 442.542 0.0279998H450.667C452.073 7.504 455.875 12.516 460.104 12.516H460.167C464.385 12.516 468.156 7.504 469.573 0.0279998H477.698C479.115 7.504 482.906 12.516 487.135 12.516H487.198C488.297 12.4858 489.38 12.1578 490.382 11.5515C491.385 10.9453 492.286 10.0734 493.031 8.988L493.052 8.974C494.813 6.468 496.042 3.374 496.625 0.0419999H504.75C504.917 0.896 505.115 1.75 505.354 2.562C505.448 2.898 505.562 3.206 505.667 3.514L505.771 3.822L505.896 4.2C505.963 4.41817 506.036 4.63298 506.115 4.844C506.365 5.46 506.635 6.02 506.865 6.496L506.958 6.678L507.042 6.86C507.756 8.36083 508.707 9.63346 509.826 10.5887C510.945 11.544 512.206 12.1588 513.521 12.39V12.418L513.771 12.46C513.908 12.4934 514.048 12.5122 514.188 12.516H514.25C518.479 12.516 522.24 7.49 523.656 0.0139998H531.781C533.188 7.49 536.99 12.516 541.219 12.516H541.281C545.51 12.516 549.292 7.49 550.688 0.0139998H558.812C560.229 7.49 564.021 12.516 568.25 12.516H568.312C572.542 12.516 576.313 7.49 577.729 0.0139998H585.854C587.26 7.49 591.062 12.516 595.292 12.516H595.354C599.583 12.516 603.354 7.49 604.75 0.0139998H612.885C614.292 7.49 618.094 12.516 622.323 12.516H622.385C626.615 12.516 630.385 7.49 631.792 0.0139998H639.917C641.333 7.49 645.125 12.516 649.354 12.516H649.427C653.646 12.516 657.417 7.49 658.823 0.0139998H666.969C668.375 7.49 672.177 12.516 676.406 12.516H676.469C677.568 12.4858 678.651 12.1578 679.653 11.5515C680.655 10.9453 681.556 10.0734 682.302 8.988V8.96C684.06 6.46176 685.29 3.37834 685.865 0.0279998H693.99C694.156 0.896 694.365 1.736 694.594 2.576L694.875 3.416L695.01 3.808L695.115 4.13V4.158C695.373 4.98842 695.705 5.77353 696.104 6.496L696.167 6.65L696.271 6.874C696.988 8.37817 697.941 9.65283 699.064 10.6083C700.187 11.5637 701.453 12.1767 702.771 12.404V12.432L703.01 12.474C703.148 12.5073 703.287 12.526 703.427 12.53H703.49C707.719 12.53 711.479 7.518 712.896 0.0419999H721.021C722.438 7.518 726.229 12.53 730.458 12.53H730.521C734.75 12.53 738.521 7.518 739.927 0.0419999H748.063C749.469 7.518 753.26 12.53 757.5 12.53H757.552C761.781 12.53 765.562 7.518 766.958 0.0419999H775.094C776.51 7.518 780.302 12.53 784.531 12.53H784.594C788.823 12.53 792.604 7.518 794 0.0419999H802.125C803.542 7.518 807.333 12.53 811.563 12.53H811.635C815.854 12.53 819.625 7.518 821.042 0.0419999H829.167C830.573 7.518 834.375 12.53 838.604 12.53H838.667C842.896 12.53 846.656 7.518 848.073 0.0419999H856.198C857.615 7.518 861.406 12.53 865.635 12.53H865.698C866.798 12.4977 867.882 12.1688 868.886 11.5627C869.89 10.9567 870.793 10.0859 871.542 9.002V8.974C873.299 6.47339 874.532 3.39141 875.115 0.0419999H883.24C883.406 0.896 883.604 1.75 883.854 2.562C883.938 2.884 884.031 3.164 884.125 3.458L884.25 3.822L884.365 4.172C884.623 5.00242 884.955 5.78753 885.354 6.51L885.417 6.664L885.521 6.888C886.236 8.38883 887.186 9.66146 888.305 10.6167C889.424 11.572 890.685 12.1868 892 12.418V12.446L892.26 12.488C892.395 12.5209 892.53 12.5397 892.667 12.544H892.729C896.958 12.544 900.74 7.532 902.135 0.0559999H910.26C911.677 7.532 915.469 12.544 919.698 12.544H919.771C923.99 12.544 927.76 7.532 929.167 0.0559999H937.292C938.708 7.532 942.5 12.544 946.729 12.544H946.802C951.021 12.544 954.792 7.532 956.208 0.0559999H964.333C965.75 7.532 969.542 12.544 973.771 12.544H973.844C978.062 12.544 981.833 7.532 983.25 0.0559999H991.375C992.781 7.532 996.812 12.544 1001.06 12.544L1001.08 25.592H0Z" fill="#FDDE58"/>
</svg>
