<svg width="1849" height="33" viewBox="0 0 1849 33" fill="none" xmlns="http://www.w3.org/2000/svg">
<path d="M1.25305 2.56592L36.0891 30.5659L70.9211 2.56592L105.754 30.5659L140.588 2.56592L175.421 30.5659L210.257 2.56592L245.09 30.5659L279.926 2.56592L314.759 30.5659L349.595 2.56592L384.428 30.5659L419.264 2.56592L454.097 30.5659L488.933 2.56592L523.767 30.5659L558.601 2.56592L593.437 30.5659L628.271 2.56592L663.106 30.5659L697.943 2.56592L732.778 30.5659L767.613 2.56592L802.448 30.5659L837.284 2.56592L872.121 30.5659L906.958 2.56592L941.795 30.5659L976.632 2.56592L1011.47 30.5659L1046.3 2.56592L1081.14 30.5659L1115.97 2.56592L1150.81 30.5659L1185.64 2.56592L1220.48 30.5659L1255.31 2.56592L1290.14 30.5659L1324.98 2.56592L1359.81 30.5659L1394.65 2.56592L1429.49 30.5659L1464.33 2.56592L1499.16 30.5659L1534 2.56592L1568.84 30.5659L1603.68 2.56592L1638.52 30.5659L1673.36 2.56592L1708.19 30.5659L1743.03 2.56592L1777.87 30.5659L1812.72 2.56592L1847.56 30.5659" stroke="#F43B00" stroke-width="4" stroke-miterlimit="10"/>
</svg>
