<svg width="34" height="1850" viewBox="0 0 34 1850" fill="none" xmlns="http://www.w3.org/2000/svg">
<path d="M31.1526 1.84753L3.15259 36.6835L31.1526 71.5155L3.15258 106.349L31.1526 141.183L3.15258 176.016L31.1526 210.852L3.15258 245.685L31.1526 280.521L3.15257 315.354L31.1526 350.19L3.15257 385.023L31.1526 419.859L3.15257 454.692L31.1526 489.528L3.15257 524.362L31.1526 559.196L3.15256 594.032L31.1526 628.866L3.15256 663.701L31.1526 698.538L3.15256 733.373L31.1526 768.208L3.15255 803.043L31.1526 837.879L3.15255 872.716L31.1525 907.553L3.15255 942.39L31.1525 977.227L3.15254 1012.06L31.1525 1046.9L3.15254 1081.73L31.1525 1116.57L3.15254 1151.4L31.1525 1186.24L3.15253 1221.07L31.1525 1255.9L3.15253 1290.74L31.1525 1325.57L3.15253 1360.41L31.1525 1395.25L3.15253 1430.08L31.1525 1464.92L3.15252 1499.76L31.1525 1534.6L3.15252 1569.43L31.1525 1604.27L3.15252 1639.12L31.1525 1673.95L3.15251 1708.79L31.1525 1743.63L3.15251 1778.47L31.1525 1813.31L3.15251 1848.15" stroke="#CCCCCC" stroke-width="4" stroke-miterlimit="10"/>
</svg>
